<?xml version="1.0" encoding="utf-8"?>
<!-- Generator: Adobe Illustrator 15.1.0, SVG Export Plug-In . SVG Version: 6.00 Build 0)  -->
<!DOCTYPE svg PUBLIC "-//W3C//DTD SVG 1.1//EN" "http://www.w3.org/Graphics/SVG/1.1/DTD/svg11.dtd">
<svg version="1.1" id="Layer_1" xmlns="http://www.w3.org/2000/svg" xmlns:xlink="http://www.w3.org/1999/xlink" x="0px" y="0px"
	 width="256px" height="256px" viewBox="0 0 256 256" enable-background="new 0 0 256 256" xml:space="preserve">
<linearGradient id="SVGID_1_" gradientUnits="userSpaceOnUse" x1="102.0625" y1="-22.1826" x2="121.3303" y2="49.7257">
	<stop  offset="0" style="stop-color:#626969"/>
	<stop  offset="1" style="stop-color:#B9B9BA"/>
</linearGradient>
<path fill-rule="evenodd" clip-rule="evenodd" fill="url(#SVGID_1_)" d="M217.802,16.956l6.432,24.472L27.698,93.093l-6.436-24.47
	c-1.825-6.948,2.364-14.136,9.316-15.963L201.843,7.635C208.79,5.811,215.972,10.003,217.802,16.956z"/>
<polygon fill-rule="evenodd" clip-rule="evenodd" fill="#FFFFFF" points="88.139,37.527 89.799,43.855 62.588,51.011 60.923,44.682 
	"/>
<rect x="125.25" y="16.226" transform="matrix(-0.2546 -0.9671 0.9671 -0.2546 131.9429 162.2944)" fill-rule="evenodd" clip-rule="evenodd" fill="#FFFFFF" width="6.545" height="28.137"/>
<rect x="179.255" y="2.029" transform="matrix(-0.2543 -0.9671 0.9671 -0.2543 213.3683 196.7196)" fill-rule="evenodd" clip-rule="evenodd" fill="#FFFFFF" width="6.545" height="28.138"/>
<path fill-rule="evenodd" clip-rule="evenodd" fill="#49494A" d="M219.323,22.73l5.932,22.576L28.716,96.973l-5.935-22.576
	c-1.827-6.944,2.365-14.131,9.317-15.959l171.26-45.024C210.31,11.588,217.493,15.781,219.323,22.73z"/>
<path fill-rule="evenodd" clip-rule="evenodd" fill="#7B7C7C" d="M125.701,62.557c45.494-11.961,82.546-21.084,82.734-20.371
	L43.643,85.503C43.457,84.793,80.203,74.515,125.701,62.557z"/>
<g>
	<path fill-rule="evenodd" clip-rule="evenodd" fill="#49494A" d="M119.525,47.12c26.488-6.964,51.718-10.55,70.529-11.622
		c18.811-1.072,31.203,0.372,32.018,3.469l-95.942,25.221l-95.941,25.22c-0.813-3.097,8.275-10.187,24.19-18.244
		S93.035,54.083,119.525,47.12z"/>
	<linearGradient id="SVGID_2_" gradientUnits="userSpaceOnUse" x1="121.8003" y1="48.2588" x2="127.7503" y2="70.4646">
		<stop  offset="0" style="stop-color:#4A4A4B"/>
		<stop  offset="1" style="stop-color:#444546"/>
	</linearGradient>
	<path fill-rule="evenodd" clip-rule="evenodd" fill="url(#SVGID_2_)" d="M222.157,38.934l-6.695,2.28l-89.024,23.401l-3.608,0.947
		L30.111,89.937c-0.333-1.27,0.982-3.741,3.96-6.206c3.83-3.171,11.648-7.516,20.042-11.765c14.92-7.553,40.571-17.151,65.405-23.68
		c1.761-0.463,3.876-1.005,5.624-1.437c22.895-5.652,48.564-9.696,64.949-10.629C207.726,35.216,221.394,36.03,222.157,38.934z"/>
	<linearGradient id="SVGID_3_" gradientUnits="userSpaceOnUse" x1="122.0278" y1="49.3418" x2="127.7694" y2="70.7695">
		<stop  offset="0" style="stop-color:#4B4B4D"/>
		<stop  offset="1" style="stop-color:#3F4042"/>
	</linearGradient>
	<path fill-rule="evenodd" clip-rule="evenodd" fill="url(#SVGID_3_)" d="M222.243,38.9l-6.113,2.646l-89.383,23.495l-3.624,0.952
		l-93.09,24.472c-0.311-1.186,0.78-4.01,3.56-6.311c3.574-2.959,12.421-7.421,20.254-11.388
		c13.926-7.05,42.485-17.222,65.664-23.315c1.644-0.433,4.001-1.039,5.632-1.441c21.367-5.275,49.691-10.197,64.984-11.068
		C206.587,36.004,221.532,36.19,222.243,38.9z"/>
	<linearGradient id="SVGID_4_" gradientUnits="userSpaceOnUse" x1="122.2559" y1="50.4248" x2="127.7886" y2="71.0733">
		<stop  offset="0" style="stop-color:#4C4D4E"/>
		<stop  offset="1" style="stop-color:#3B3C3E"/>
	</linearGradient>
	<path fill-rule="evenodd" clip-rule="evenodd" fill="url(#SVGID_4_)" d="M222.329,38.867l-5.531,3.011l-89.742,23.59l-3.64,0.956
		L29.957,90.994c-0.289-1.101,0.578-4.279,3.159-6.415c3.319-2.748,13.193-7.327,20.467-11.01
		c12.931-6.547,44.399-17.293,65.923-22.951c1.525-0.401,4.127-1.073,5.642-1.447c19.84-4.898,50.817-10.698,65.018-11.506
		C205.448,36.794,221.667,36.35,222.329,38.867z"/>
	<linearGradient id="SVGID_5_" gradientUnits="userSpaceOnUse" x1="122.4839" y1="51.5068" x2="127.8085" y2="71.3784">
		<stop  offset="0" style="stop-color:#4D4E4F"/>
		<stop  offset="1" style="stop-color:#36383A"/>
	</linearGradient>
	<path fill-rule="evenodd" clip-rule="evenodd" fill="url(#SVGID_5_)" d="M222.415,38.833l-4.949,3.377l-90.102,23.685l-3.656,0.961
		l-93.83,24.666c-0.267-1.016,0.377-4.547,2.76-6.519c3.063-2.537,13.964-7.233,20.678-10.633
		c11.937-6.043,46.313-17.364,66.182-22.587c1.408-0.371,4.253-1.106,5.65-1.452c18.315-4.521,51.944-11.199,65.051-11.945
		C204.31,37.583,221.806,36.51,222.415,38.833z"/>
	<linearGradient id="SVGID_6_" gradientUnits="userSpaceOnUse" x1="122.7124" y1="52.5908" x2="127.8285" y2="71.6844">
		<stop  offset="0" style="stop-color:#4E4F51"/>
		<stop  offset="1" style="stop-color:#323535"/>
	</linearGradient>
	<path fill-rule="evenodd" clip-rule="evenodd" fill="url(#SVGID_6_)" d="M222.501,38.799l-4.365,3.743l-90.462,23.779L124,67.287
		L29.801,92.05c-0.244-0.931,0.176-4.815,2.36-6.623c2.808-2.325,14.735-7.139,20.89-10.255
		c10.942-5.539,48.228-17.435,66.44-22.222c1.291-0.34,4.378-1.14,5.659-1.457c16.79-4.145,53.071-11.7,65.086-12.384
		C203.171,38.372,221.942,36.67,222.501,38.799z"/>
	<linearGradient id="SVGID_7_" gradientUnits="userSpaceOnUse" x1="122.9404" y1="53.6724" x2="127.8481" y2="71.9879">
		<stop  offset="0" style="stop-color:#4E5152"/>
		<stop  offset="1" style="stop-color:#2E3131"/>
	</linearGradient>
	<path fill-rule="evenodd" clip-rule="evenodd" fill="url(#SVGID_7_)" d="M222.587,38.766l-3.783,4.109l-90.822,23.874l-3.688,0.969
		L29.725,92.579c-0.222-0.847-0.026-5.084,1.959-6.727c2.553-2.114,15.507-7.045,21.103-9.878
		c9.947-5.036,50.142-17.505,66.698-21.857c1.174-0.309,4.504-1.174,5.669-1.462c15.263-3.768,54.199-12.201,65.121-12.822
		C202.032,39.162,222.079,36.83,222.587,38.766z"/>
	<linearGradient id="SVGID_8_" gradientUnits="userSpaceOnUse" x1="123.1689" y1="54.7554" x2="127.8678" y2="72.2916">
		<stop  offset="0" style="stop-color:#4F5253"/>
		<stop  offset="1" style="stop-color:#292D2D"/>
	</linearGradient>
	<path fill-rule="evenodd" clip-rule="evenodd" fill="url(#SVGID_8_)" d="M222.673,38.732l-3.201,4.474l-91.181,23.969l-3.705,0.974
		L29.647,93.107c-0.2-0.762-0.228-5.353,1.559-6.832c2.298-1.902,16.279-6.951,21.315-9.501
		c8.952-4.532,52.057-17.576,66.958-21.493c1.056-0.278,4.629-1.208,5.678-1.468c13.735-3.391,55.325-12.701,65.155-13.261
		C200.894,39.95,222.216,36.99,222.673,38.732z"/>
	<linearGradient id="SVGID_9_" gradientUnits="userSpaceOnUse" x1="123.397" y1="55.8369" x2="127.8873" y2="72.5951">
		<stop  offset="0" style="stop-color:#505355"/>
		<stop  offset="1" style="stop-color:#252929"/>
	</linearGradient>
	<path fill-rule="evenodd" clip-rule="evenodd" fill="url(#SVGID_9_)" d="M222.759,38.699l-2.619,4.84L128.6,67.602l-3.721,0.978
		L29.57,93.635c-0.178-0.677-0.43-5.621,1.159-6.935c2.042-1.691,17.051-6.857,21.527-9.124
		c7.958-4.029,53.971-17.647,67.216-21.129c0.939-0.247,4.755-1.242,5.687-1.473c12.209-3.014,56.452-13.202,65.19-13.7
		C199.755,40.74,222.353,37.15,222.759,38.699z"/>
	<linearGradient id="SVGID_10_" gradientUnits="userSpaceOnUse" x1="123.625" y1="56.9209" x2="127.9065" y2="72.8998">
		<stop  offset="0" style="stop-color:#515556"/>
		<stop  offset="1" style="stop-color:#202525"/>
	</linearGradient>
	<path fill-rule="evenodd" clip-rule="evenodd" fill="url(#SVGID_10_)" d="M222.845,38.665l-2.035,5.206l-91.901,24.158
		l-3.737,0.982L29.493,94.164c-0.156-0.592-0.631-5.889,0.759-7.039c1.787-1.479,17.822-6.764,21.739-8.747
		c6.963-3.524,55.885-17.717,67.475-20.764c0.821-0.216,4.88-1.276,5.696-1.478c10.684-2.638,57.578-13.703,65.225-14.139
		C198.616,41.529,222.489,37.31,222.845,38.665z"/>
	<linearGradient id="SVGID_11_" gradientUnits="userSpaceOnUse" x1="123.8535" y1="58.0039" x2="127.9269" y2="73.206">
		<stop  offset="0" style="stop-color:#525657"/>
		<stop  offset="1" style="stop-color:#1B2021"/>
	</linearGradient>
	<path fill-rule="evenodd" clip-rule="evenodd" fill="url(#SVGID_11_)" d="M222.931,38.631l-1.453,5.571l-92.261,24.253
		l-3.753,0.987l-96.049,25.25c-0.133-0.508-0.833-6.157,0.359-7.143c1.532-1.268,18.594-6.669,21.951-8.369
		c5.968-3.021,57.8-17.789,67.733-20.4c0.704-0.186,5.006-1.31,5.705-1.482c9.158-2.261,58.705-14.204,65.259-14.577
		C197.478,42.318,222.626,37.47,222.931,38.631z"/>
	<linearGradient id="SVGID_12_" gradientUnits="userSpaceOnUse" x1="124.082" y1="59.0859" x2="127.9466" y2="73.5088">
		<stop  offset="0" style="stop-color:#535759"/>
		<stop  offset="1" style="stop-color:#161C1C"/>
	</linearGradient>
	<path fill-rule="evenodd" clip-rule="evenodd" fill="url(#SVGID_12_)" d="M223.017,38.598l-0.871,5.937l-92.619,24.348l-3.77,0.991
		L29.338,95.221c-0.111-0.424-1.034-6.427-0.042-7.248c1.277-1.057,19.366-6.576,22.164-7.992
		c4.973-2.518,59.714-17.859,67.992-20.035c0.587-0.154,5.132-1.344,5.714-1.488c7.632-1.884,59.832-14.705,65.294-15.016
		C196.337,43.107,222.763,37.63,223.017,38.598z"/>
	<linearGradient id="SVGID_13_" gradientUnits="userSpaceOnUse" x1="124.311" y1="60.1685" x2="127.9675" y2="73.8145">
		<stop  offset="0" style="stop-color:#53585A"/>
		<stop  offset="1" style="stop-color:#101616"/>
	</linearGradient>
	<path fill-rule="evenodd" clip-rule="evenodd" fill="url(#SVGID_13_)" d="M223.104,38.564l-0.291,6.303l-92.979,24.442
		l-3.786,0.995L29.261,95.749c-0.089-0.338-1.236-6.695-0.442-7.352c1.021-0.846,20.137-6.481,22.375-7.615
		c3.979-2.014,61.628-17.929,68.25-19.67c0.47-0.123,5.258-1.378,5.724-1.493c6.106-1.507,60.959-15.206,65.329-15.455
		C195.198,43.896,222.899,37.79,223.104,38.564z"/>
	<linearGradient id="SVGID_14_" gradientUnits="userSpaceOnUse" x1="124.5371" y1="61.25" x2="127.9854" y2="74.1192">
		<stop  offset="0" style="stop-color:#54595B"/>
		<stop  offset="1" style="stop-color:#091111"/>
	</linearGradient>
	<path fill-rule="evenodd" clip-rule="evenodd" fill="url(#SVGID_14_)" d="M223.188,38.531l0.295,6.668l-93.34,24.537l-3.801,1
		L29.184,96.277c-0.067-0.254-1.438-6.963-0.842-7.456c0.766-0.634,20.909-6.387,22.588-7.237
		c2.984-1.511,63.542-18.001,68.509-19.307c0.353-0.093,5.384-1.412,5.733-1.498c4.578-1.13,62.085-15.707,65.363-15.894
		C194.06,44.685,223.036,37.95,223.188,38.531z"/>
	<linearGradient id="SVGID_15_" gradientUnits="userSpaceOnUse" x1="124.7666" y1="62.333" x2="128.0061" y2="74.4229">
		<stop  offset="0" style="stop-color:#555B5C"/>
		<stop  offset="1" style="stop-color:#020909"/>
	</linearGradient>
	<path fill-rule="evenodd" clip-rule="evenodd" fill="url(#SVGID_15_)" d="M223.276,38.497l0.875,7.034l-93.699,24.632l-3.818,1.004
		l-97.528,25.64c-0.044-0.169-1.639-7.232-1.242-7.561c0.511-0.423,21.681-6.293,22.799-6.86
		c1.99-1.007,65.457-18.071,68.768-18.942c0.235-0.062,5.509-1.446,5.742-1.503c3.053-0.753,63.212-16.208,65.396-16.332
		C192.921,45.475,223.175,38.109,223.276,38.497z"/>
	<linearGradient id="SVGID_16_" gradientUnits="userSpaceOnUse" x1="124.9814" y1="63.3701" x2="128.0286" y2="74.7422">
		<stop  offset="0" style="stop-color:#555C5D"/>
		<stop  offset="1" style="stop-color:#000101"/>
	</linearGradient>
	<path fill-rule="evenodd" clip-rule="evenodd" fill="url(#SVGID_16_)" d="M223.362,38.463l1.457,7.399l-94.059,24.727l-3.833,1.009
		L29.029,97.334c-0.022-0.084-1.841-7.5-1.643-7.665c0.255-0.211,22.453-6.199,23.013-6.482
		c0.995-0.503,67.371-18.142,69.026-18.578c0.117-0.031,5.634-1.479,5.75-1.508c1.526-0.377,64.339-16.709,65.431-16.771
		C191.782,46.263,223.312,38.27,223.362,38.463z"/>
	<linearGradient id="SVGID_17_" gradientUnits="userSpaceOnUse" x1="125.1094" y1="64.0762" x2="128.081" y2="75.1664">
		<stop  offset="0" style="stop-color:#565D5F"/>
		<stop  offset="1" style="stop-color:#000000"/>
	</linearGradient>
	<polygon fill-rule="evenodd" clip-rule="evenodd" fill="url(#SVGID_17_)" points="223.448,38.43 225.487,46.195 127.22,72.029 
		28.952,97.863 26.909,90.094 125.178,64.262 	"/>
</g>
<linearGradient id="SVGID_18_" gradientUnits="userSpaceOnUse" x1="122.0615" y1="64.1738" x2="124.316" y2="72.5876">
	<stop  offset="0" style="stop-color:#E6E7E8"/>
	<stop  offset="1" style="stop-color:#414848"/>
</linearGradient>
<path fill-rule="evenodd" clip-rule="evenodd" fill="url(#SVGID_18_)" d="M62.409,50.357l27.798-7.309L69.212,86.929l-27.797,7.306
	L62.409,50.357L62.409,50.357z M169.745,22.137l27.797-7.304L176.546,58.71l-27.795,7.309L169.745,22.137L169.745,22.137z
	 M116.081,36.246l27.793-7.306l-20.995,43.882l-27.796,7.305L116.081,36.246z"/>
<linearGradient id="SVGID_19_" gradientUnits="userSpaceOnUse" x1="113.6318" y1="49.314" x2="117.712" y2="64.5414">
	<stop  offset="0" style="stop-color:#E6E7E8"/>
	<stop  offset="1" style="stop-color:#FFFFFF"/>
</linearGradient>
<path fill-rule="evenodd" clip-rule="evenodd" fill="url(#SVGID_19_)" d="M82.64,58.864l-9.17,19.169l-27.797,7.304l6.152-12.858
	C60.155,68.117,70.596,63.409,82.64,58.864L82.64,58.864z M119.525,47.12c5.972-1.568,11.877-2.966,17.664-4.203l-10.05,21.004
	l-27.796,7.308l10.212-21.343C112.813,48.937,116.137,48.01,119.525,47.12L119.525,47.12z M161.946,38.443
	c9.305-1.367,17.957-2.281,25.637-2.79l-6.775,14.159l-27.797,7.309L161.946,38.443z"/>
<path fill-rule="evenodd" clip-rule="evenodd" fill="#FFFFFF" d="M218.874,21.04l0.578,2.203
	c-1.822-6.953-9.006-11.145-15.959-9.317L32.233,58.947c-6.952,1.828-11.145,9.015-9.317,15.963l-0.578-2.202
	c-1.829-6.95,2.365-14.132,9.317-15.96l171.259-45.024C209.866,9.898,217.05,14.092,218.874,21.04z"/>
<rect x="28.827" y="104.385" fill-rule="evenodd" clip-rule="evenodd" fill="#49494A" width="203.215" height="134.76"/>
<linearGradient id="SVGID_20_" gradientUnits="userSpaceOnUse" x1="130.4336" y1="104.8979" x2="130.4336" y2="97.7625">
	<stop  offset="0" style="stop-color:#565D5F"/>
	<stop  offset="1" style="stop-color:#000000"/>
</linearGradient>
<rect x="28.827" y="97.724" fill-rule="evenodd" clip-rule="evenodd" fill="url(#SVGID_20_)" width="203.215" height="7.402"/>
<g>
	<path fill-rule="evenodd" clip-rule="evenodd" fill="#49494A" d="M129.321,124.137c54.781,0,101.25-11.786,101.25-18.188h-198.4
		C32.171,112.352,74.546,124.137,129.321,124.137z"/>
	<path fill-rule="evenodd" clip-rule="evenodd" fill="#4C4C4D" d="M129.45,123.106c54.297,0,100.246-11.086,100.246-17.134H33.046
		C33.046,112.02,75.158,123.106,129.45,123.106z"/>
	<path fill-rule="evenodd" clip-rule="evenodd" fill="#4F4F50" d="M129.578,122.075c53.813,0,99.243-10.387,99.243-16.082H33.922
		C33.922,111.688,75.769,122.075,129.578,122.075z"/>
	<path fill-rule="evenodd" clip-rule="evenodd" fill="#525253" d="M129.706,121.043c53.332,0,98.24-9.688,98.24-15.028H34.797
		C34.797,111.356,76.38,121.043,129.706,121.043z"/>
	<path fill-rule="evenodd" clip-rule="evenodd" fill="#555556" d="M129.835,120.012c52.846,0,97.234-8.988,97.234-13.975H35.673
		C35.673,111.024,76.992,120.012,129.835,120.012z"/>
	<path fill-rule="evenodd" clip-rule="evenodd" fill="#585859" d="M129.962,118.981c52.363,0,96.232-8.289,96.232-12.921H36.549
		C36.549,110.692,77.604,118.981,129.962,118.981z"/>
	<path fill-rule="evenodd" clip-rule="evenodd" fill="#5B5B5C" d="M130.091,117.95c51.881,0,95.229-7.59,95.229-11.868H37.425
		C37.425,110.36,78.215,117.95,130.091,117.95z"/>
	<path fill-rule="evenodd" clip-rule="evenodd" fill="#5E5E5F" d="M130.219,116.918c51.397,0,94.226-6.89,94.226-10.814H38.3
		C38.3,110.028,78.827,116.918,130.219,116.918z"/>
	<path fill-rule="evenodd" clip-rule="evenodd" fill="#616162" d="M130.347,115.887c50.914,0,93.223-6.191,93.223-9.761H39.176
		C39.176,109.696,79.438,115.887,130.347,115.887z"/>
	<path fill-rule="evenodd" clip-rule="evenodd" fill="#656465" d="M130.476,114.856c50.43,0,92.219-5.492,92.219-8.708H40.052
		C40.052,109.364,80.049,114.856,130.476,114.856z"/>
	<path fill-rule="evenodd" clip-rule="evenodd" fill="#686768" d="M130.603,113.824c49.947,0,91.215-4.792,91.215-7.654H40.927
		C40.927,109.032,80.661,113.824,130.603,113.824z"/>
	<path fill-rule="evenodd" clip-rule="evenodd" fill="#6B6B6B" d="M130.731,112.793c49.463,0,90.211-4.093,90.211-6.6H41.803
		C41.803,108.7,81.272,112.793,130.731,112.793z"/>
	<path fill-rule="evenodd" clip-rule="evenodd" fill="#6E6E6E" d="M130.858,111.762c48.98,0,89.209-3.394,89.209-5.547H42.679
		C42.679,108.368,81.884,111.762,130.858,111.762z"/>
	<path fill-rule="evenodd" clip-rule="evenodd" fill="#717171" d="M130.987,110.73c48.496,0,88.205-2.694,88.205-4.494H43.554
		C43.554,108.037,82.496,110.73,130.987,110.73z"/>
	<path fill-rule="evenodd" clip-rule="evenodd" fill="#757575" d="M131.115,109.699c48.013,0,87.2-1.995,87.2-3.44H44.43
		C44.43,107.705,83.107,109.699,131.115,109.699z"/>
	<path fill-rule="evenodd" clip-rule="evenodd" fill="#787878" d="M131.243,108.668c47.529,0,86.197-1.295,86.197-2.387H45.305
		C45.305,107.373,83.718,108.668,131.243,108.668z"/>
	<path fill-rule="evenodd" clip-rule="evenodd" fill="#7B7C7C" d="M131.372,107.637c47.045,0,85.193-0.596,85.193-1.333H46.181
		C46.181,107.041,84.33,107.637,131.372,107.637z"/>
</g>
<linearGradient id="SVGID_21_" gradientUnits="userSpaceOnUse" x1="71.9038" y1="108.0552" x2="71.9038" y2="97.986">
	<stop  offset="0" style="stop-color:#E6E7E8"/>
	<stop  offset="1" style="stop-color:#939598"/>
</linearGradient>
<polygon fill-rule="evenodd" clip-rule="evenodd" fill="url(#SVGID_21_)" points="73.265,134.488 102.006,134.488 70.544,97.385 
	41.802,97.385 "/>
<linearGradient id="SVGID_22_" gradientUnits="userSpaceOnUse" x1="127.396" y1="108.0552" x2="127.396" y2="97.986">
	<stop  offset="0" style="stop-color:#E6E7E8"/>
	<stop  offset="1" style="stop-color:#939598"/>
</linearGradient>
<polygon fill-rule="evenodd" clip-rule="evenodd" fill="url(#SVGID_22_)" points="128.758,134.488 157.497,134.488 126.037,97.385 
	97.295,97.385 "/>
<linearGradient id="SVGID_23_" gradientUnits="userSpaceOnUse" x1="182.8887" y1="108.0552" x2="182.8887" y2="97.986">
	<stop  offset="0" style="stop-color:#E6E7E8"/>
	<stop  offset="1" style="stop-color:#939598"/>
</linearGradient>
<polygon fill-rule="evenodd" clip-rule="evenodd" fill="url(#SVGID_23_)" points="184.247,134.488 212.989,134.488 181.526,97.385 
	152.788,97.385 "/>
<linearGradient id="SVGID_24_" gradientUnits="userSpaceOnUse" x1="70.3481" y1="121.8936" x2="70.3481" y2="104.489">
	<stop  offset="0" style="stop-color:#E6E7E8"/>
	<stop  offset="1" style="stop-color:#FFFFFF"/>
</linearGradient>
<path fill-rule="evenodd" clip-rule="evenodd" fill="url(#SVGID_24_)" d="M91.631,122.253l-13.824-16.304H49.065l9.428,11.118
	C67.691,119.123,78.936,120.964,91.631,122.253z"/>
<linearGradient id="SVGID_25_" gradientUnits="userSpaceOnUse" x1="126.4414" y1="121.9453" x2="126.4414" y2="104.4298">
	<stop  offset="0" style="stop-color:#E6E7E8"/>
	<stop  offset="1" style="stop-color:#FFFFFF"/>
</linearGradient>
<path fill-rule="evenodd" clip-rule="evenodd" fill="url(#SVGID_25_)" d="M148.323,123.668l-15.025-17.719h-28.739l15.319,18.066
	c3.103,0.079,6.253,0.122,9.443,0.122C135.796,124.137,142.146,123.97,148.323,123.668z"/>
<linearGradient id="SVGID_26_" gradientUnits="userSpaceOnUse" x1="179.4326" y1="121.8755" x2="179.4326" y2="104.5055">
	<stop  offset="0" style="stop-color:#E6E7E8"/>
	<stop  offset="1" style="stop-color:#FFFFFF"/>
</linearGradient>
<path fill-rule="evenodd" clip-rule="evenodd" fill="url(#SVGID_26_)" d="M198.819,117.776l-10.029-11.827h-28.744l13.312,15.698
	C182.708,120.584,191.296,119.251,198.819,117.776z"/>
<path d="M49.769,208.121v-7.457h7.454v7.457H49.769L49.769,208.121z M59.001,208.121v-7.457h7.458v7.457H59.001L59.001,208.121z
	 M40.518,208.121v-7.457h7.454v7.457H40.518L40.518,208.121z M49.769,198.871v-7.453h7.454v7.453H49.769L49.769,198.871z
	 M49.769,189.635v-7.455h7.454v7.455H49.769L49.769,189.635z M49.769,180.385v-7.457h7.454v7.457H49.769L49.769,180.385z
	 M49.769,171.15v-7.457h7.454v7.457H49.769L49.769,171.15z M49.769,161.9v-7.455h7.454v7.455H49.769L49.769,161.9z M49.769,152.664
	v-7.455h7.454v7.455H49.769L49.769,152.664z M40.518,161.9v-7.455h7.454v7.455H40.518z"/>
<path d="M76.6,208.121v-7.457h7.453v7.457H76.6L76.6,208.121z M85.851,208.121v-7.457h7.453v7.457H85.851L85.851,208.121z
	 M95.083,208.121v-7.457h7.458v7.457H95.083L95.083,208.121z M104.333,208.121v-7.457h7.457v7.457H104.333L104.333,208.121z
	 M113.584,208.121v-7.457h7.453v7.457H113.584L113.584,208.121z M76.6,198.871v-7.453h7.453v7.453H76.6L76.6,198.871z
	 M85.851,189.635v-7.455h7.453v7.455H85.851L85.851,189.635z M95.083,180.385v-7.457h7.458v7.457H95.083L95.083,180.385z
	 M104.333,171.15v-7.457h7.457v7.457H104.333L104.333,171.15z M113.584,161.9v-7.455h7.453v7.455H113.584L113.584,161.9z
	 M104.043,152.664v-7.455h7.454v7.455H104.043L104.043,152.664z M94.792,152.664v-7.455h7.458v7.455H94.792L94.792,152.664z
	 M85.542,152.664v-7.455h7.457v7.455H85.542L85.542,152.664z M76.306,161.9v-7.455h7.458v7.455H76.306z"/>
<path fill="#FFFFFF" d="M49.769,210.523v-7.457h7.454v7.457H49.769L49.769,210.523z M59.001,210.523v-7.457h7.458v7.457H59.001
	L59.001,210.523z M40.518,210.523v-7.457h7.454v7.457H40.518L40.518,210.523z M49.769,201.273v-7.457h7.454v7.457H49.769
	L49.769,201.273z M49.769,192.035v-7.451h7.454v7.451H49.769L49.769,192.035z M49.769,182.785v-7.453h7.454v7.453H49.769
	L49.769,182.785z M49.769,173.551v-7.455h7.454v7.455H49.769L49.769,173.551z M49.769,164.303v-7.457h7.454v7.457H49.769
	L49.769,164.303z M49.769,155.066v-7.459h7.454v7.459H49.769L49.769,155.066z M40.518,164.303v-7.457h7.454v7.457H40.518z"/>
<path fill="#FFFFFF" d="M76.6,210.523v-7.457h7.453v7.457H76.6L76.6,210.523z M85.851,210.523v-7.457h7.453v7.457H85.851
	L85.851,210.523z M95.083,210.523v-7.457h7.458v7.457H95.083L95.083,210.523z M104.333,210.523v-7.457h7.457v7.457H104.333
	L104.333,210.523z M113.584,210.523v-7.457h7.453v7.457H113.584L113.584,210.523z M76.6,201.273v-7.457h7.453v7.457H76.6
	L76.6,201.273z M85.851,192.035v-7.451h7.453v7.451H85.851L85.851,192.035z M95.083,182.785v-7.453h7.458v7.453H95.083
	L95.083,182.785z M104.333,173.551v-7.455h7.457v7.455H104.333L104.333,173.551z M113.584,164.303v-7.457h7.453v7.457H113.584
	L113.584,164.303z M104.043,155.066v-7.459h7.454v7.459H104.043L104.043,155.066z M94.792,155.066v-7.459h7.458v7.459H94.792
	L94.792,155.066z M85.542,155.066v-7.459h7.457v7.459H85.542L85.542,155.066z M76.306,164.303v-7.457h7.458v7.457H76.306z"/>
<path fill="#FFFFFF" d="M127.583,154.75c-0.491,0-0.886-0.398-0.886-0.885c0-0.492,0.396-0.887,0.886-0.887h96.847
	c0.49,0,0.887,0.395,0.887,0.887c0,0.486-0.396,0.885-0.887,0.885H127.583z"/>
<path fill="#FFFFFF" d="M127.583,172.83c-0.491,0-0.886-0.398-0.886-0.887s0.396-0.887,0.886-0.887h96.847
	c0.49,0,0.887,0.398,0.887,0.887s-0.396,0.887-0.887,0.887H127.583z"/>
<path fill="#FFFFFF" d="M127.583,208.986c-0.491,0-0.886-0.393-0.886-0.885c0-0.488,0.396-0.889,0.886-0.889h96.847
	c0.49,0,0.887,0.4,0.887,0.889c0,0.492-0.396,0.885-0.887,0.885H127.583z"/>
<path fill="#FFFFFF" d="M40.421,228.639c-0.488,0-0.887-0.4-0.887-0.887c0-0.488,0.399-0.887,0.887-0.887h184.009
	c0.49,0,0.887,0.398,0.887,0.887c0,0.486-0.396,0.887-0.887,0.887H40.421z"/>
<path fill="#FFFFFF" d="M127.583,190.91c-0.491,0-0.886-0.396-0.886-0.889c0-0.488,0.396-0.887,0.886-0.887h96.847
	c0.49,0,0.887,0.398,0.887,0.887c0,0.492-0.396,0.889-0.887,0.889H127.583z"/>
<path fill-rule="evenodd" clip-rule="evenodd" fill="#CBCACA" d="M232.042,123.184v-2.277c0,7.188-5.881,13.068-13.066,13.068
	H41.896c-7.191,0-13.069-5.884-13.069-13.068v2.277c0,7.181,5.878,13.066,13.069,13.066h177.08
	C226.161,136.25,232.042,130.371,232.042,123.184z"/>
<g>
	<path fill-rule="evenodd" clip-rule="evenodd" d="M232.042,124.493v-2.274c0,7.186-5.881,13.069-13.066,13.069H41.896
		c-7.191,0-13.069-5.887-13.069-13.069v2.274c0,7.183,5.878,13.068,13.069,13.068h177.08
		C226.161,137.561,232.042,131.68,232.042,124.493z"/>
	<path fill-rule="evenodd" clip-rule="evenodd" fill="#080808" d="M232.042,124.951v-2.274c0,7.187-5.881,13.068-13.066,13.068
		H41.896c-7.191,0-13.069-5.885-13.069-13.068v2.274c0,7.184,5.878,13.069,13.069,13.069h177.08
		C226.161,138.02,232.042,132.137,232.042,124.951z"/>
	<path fill-rule="evenodd" clip-rule="evenodd" fill="#0F1010" d="M232.042,125.41v-2.274c0,7.187-5.881,13.068-13.066,13.068
		H41.896c-7.191,0-13.069-5.885-13.069-13.068v2.274c0,7.184,5.878,13.069,13.069,13.069h177.08
		C226.161,138.479,232.042,132.596,232.042,125.41z"/>
	<path fill-rule="evenodd" clip-rule="evenodd" fill="#151616" d="M232.042,125.868v-2.273c0,7.187-5.881,13.068-13.066,13.068
		H41.896c-7.191,0-13.069-5.887-13.069-13.068v2.273c0,7.185,5.878,13.068,13.069,13.068h177.08
		C226.161,138.936,232.042,133.055,232.042,125.868z"/>
	<path fill-rule="evenodd" clip-rule="evenodd" fill="#1A1B1B" d="M232.042,126.327v-2.274c0,7.188-5.881,13.069-13.066,13.069
		H41.896c-7.191,0-13.069-5.887-13.069-13.069v2.274c0,7.183,5.878,13.068,13.069,13.068h177.08
		C226.161,139.395,232.042,133.514,232.042,126.327z"/>
	<path fill-rule="evenodd" clip-rule="evenodd" fill="#1E2020" d="M232.042,126.786v-2.274c0,7.186-5.881,13.067-13.066,13.067
		H41.896c-7.191,0-13.069-5.885-13.069-13.067v2.274c0,7.183,5.878,13.068,13.069,13.068h177.08
		C226.161,139.854,232.042,133.973,232.042,126.786z"/>
	<path fill-rule="evenodd" clip-rule="evenodd" fill="#232424" d="M232.042,127.245v-2.275c0,7.187-5.881,13.068-13.066,13.068
		H41.896c-7.19,0-13.069-5.887-13.069-13.068v2.275c0,7.183,5.879,13.066,13.069,13.066h177.08
		C226.161,140.311,232.042,134.432,232.042,127.245z"/>
	<path fill-rule="evenodd" clip-rule="evenodd" fill="#272828" d="M232.042,127.704v-2.276c0,7.188-5.881,13.069-13.066,13.069
		H41.896c-7.191,0-13.069-5.887-13.069-13.069v2.276c0,7.183,5.878,13.066,13.069,13.066h177.08
		C226.161,140.77,232.042,134.889,232.042,127.704z"/>
	<path fill-rule="evenodd" clip-rule="evenodd" fill="#2B2C2C" d="M232.042,128.161v-2.274c0,7.188-5.881,13.067-13.066,13.067
		H41.896c-7.191,0-13.069-5.885-13.069-13.067v2.274c0,7.185,5.878,13.068,13.069,13.068h177.08
		C226.161,141.229,232.042,135.348,232.042,128.161z"/>
	<path fill-rule="evenodd" clip-rule="evenodd" fill="#2E2F30" d="M232.042,128.62v-2.273c0,7.185-5.881,13.066-13.066,13.066
		H41.896c-7.191,0-13.069-5.887-13.069-13.066v2.273c0,7.183,5.878,13.066,13.069,13.066h177.08
		C226.161,141.686,232.042,135.807,232.042,128.62z"/>
	<path fill-rule="evenodd" clip-rule="evenodd" fill="#323334" d="M232.042,129.078v-2.275c0,7.187-5.881,13.068-13.066,13.068
		H41.896c-7.19,0-13.069-5.887-13.069-13.068v2.275c0,7.184,5.879,13.066,13.069,13.066h177.08
		C226.161,142.145,232.042,136.266,232.042,129.078z"/>
	<path fill-rule="evenodd" clip-rule="evenodd" fill="#363737" d="M232.042,129.537v-2.275c0,7.187-5.881,13.066-13.066,13.066
		H41.896c-7.191,0-13.069-5.887-13.069-13.066v2.275c0,7.184,5.878,13.066,13.069,13.066h177.08
		C226.161,142.604,232.042,136.725,232.042,129.537z"/>
	<path fill-rule="evenodd" clip-rule="evenodd" fill="#3A3A3B" d="M232.042,129.994v-2.273c0,7.187-5.881,13.066-13.066,13.066
		H41.896c-7.191,0-13.069-5.887-13.069-13.066v2.273c0,7.186,5.878,13.066,13.069,13.066h177.08
		C226.161,143.061,232.042,137.182,232.042,129.994z"/>
	<path fill-rule="evenodd" clip-rule="evenodd" fill="#3D3E3F" d="M232.042,130.453v-2.273c0,7.187-5.881,13.066-13.066,13.066
		H41.896c-7.191,0-13.069-5.887-13.069-13.066v2.273c0,7.184,5.878,13.066,13.069,13.066h177.08
		C226.161,143.52,232.042,137.641,232.042,130.453z"/>
	<path fill-rule="evenodd" clip-rule="evenodd" fill="#414143" d="M232.042,130.912v-2.275c0,7.187-5.881,13.068-13.066,13.068
		H41.896c-7.191,0-13.069-5.889-13.069-13.068v2.275c0,7.184,5.878,13.066,13.069,13.066h177.08
		C226.161,143.979,232.042,138.1,232.042,130.912z"/>
	<path fill-rule="evenodd" clip-rule="evenodd" fill="#454546" d="M232.042,131.369v-2.273c0,7.188-5.881,13.066-13.066,13.066
		H41.896c-7.191,0-13.069-5.887-13.069-13.066v2.273c0,7.186,5.878,13.068,13.069,13.068h177.08
		C226.161,144.438,232.042,138.557,232.042,131.369z"/>
	<path fill-rule="evenodd" clip-rule="evenodd" fill="#49494A" d="M232.042,131.828v-2.273c0,7.188-5.881,13.066-13.066,13.066
		H41.896c-7.191,0-13.069-5.887-13.069-13.066v2.273c0,7.186,5.878,13.066,13.069,13.066h177.08
		C226.161,144.895,232.042,139.016,232.042,131.828z"/>
</g>
</svg>
